{"asset":{"version":"2.0","generator":"Blockbench 5.0.4 glTF exporter"},"scenes":[{"nodes":[16],"name":"blockbench_export"}],"scene":0,"nodes":[{"translation":[0,0.4375,0],"name":"mane"},{"rotation":[-0.6755902076156601,0,0,0.7372773368101241],"translation":[0,0.375,-0.0625],"name":"neck","children":[0]},{"rotation":[-0.7071067811865475,0,0,0.7071067811865476],"translation":[0,0.375,0.015625],"name":"bone5"},{"translation":[0,0.3125,0],"name":"bone3","children":[2]},{"rotation":[0.7071067811865475,0,0,0.7071067811865476],"translation":[0.125,0.3125,0.0625],"name":"bone","children":[3]},{"rotation":[-0.7071067811865475,0,0,0.7071067811865476],"translation":[0,0.375,0.015625],"name":"bone6"},{"translation":[0,0.3125,0],"name":"bone4","children":[5]},{"rotation":[0.7071067811865475,0,0,0.7071067811865476],"translation":[-0.125,0.3125,0.0625],"name":"bone2","children":[6]},{"translation":[0,0.3125,-0.0625],"name":"chest","children":[1,4,7]},{"rotation":[0.7071067811865475,0,0,0.7071067811865476],"translation":[0,0.8125,-0.25],"name":"pelvis","children":[8]},{"rotation":[-0.8433914458128857,0,0,0.5372996083468239],"translation":[0,0.3125,0],"name":"footL"},{"rotation":[0.21643961393810288,0,0,0.9762960071199334],"translation":[0,0.3125,0],"name":"calfL","children":[10]},{"rotation":[-1,0,0,6.123233995736766e-17],"translation":[0.125,0.75,-0.25],"name":"backThighBoneL","children":[11]},{"rotation":[-0.8433914458128857,0,0,0.5372996083468239],"translation":[0,0.3125,0],"name":"footR"},{"rotation":[0.21643961393810288,0,0,0.9762960071199334],"translation":[0,0.3125,0],"name":"calfR","children":[13]},{"rotation":[-1,0,0,6.123233995736766e-17],"translation":[-0.125,0.75,-0.25],"name":"backThighBoneR","children":[14]},{"name":"armature","mesh":0,"children":[9,12,15],"skin":0}],"bufferViews":[{"buffer":0,"byteOffset":0,"byteLength":3072,"target":34962,"byteStride":12},{"buffer":0,"byteOffset":3072,"byteLength":3072,"target":34962,"byteStride":12},{"buffer":0,"byteOffset":6144,"byteLength":2048,"target":34962,"byteStride":8},{"buffer":0,"byteOffset":8192,"byteLength":2048,"target":34962,"byteStride":8},{"buffer":0,"byteOffset":10240,"byteLength":4096,"target":34962,"byteStride":16},{"buffer":0,"byteOffset":14336,"byteLength":720,"target":34963},{"buffer":0,"byteOffset":15056,"byteLength":1024},{"buffer":0,"byteOffset":16080,"byteLength":4},{"buffer":0,"byteOffset":16084,"byteLength":16},{"buffer":0,"byteOffset":16100,"byteLength":4},{"buffer":0,"byteOffset":16104,"byteLength":16},{"buffer":0,"byteOffset":16120,"byteLength":4},{"buffer":0,"byteOffset":16124,"byteLength":16},{"buffer":0,"byteOffset":16140,"byteLength":4},{"buffer":0,"byteOffset":16144,"byteLength":16},{"buffer":0,"byteOffset":16160,"byteLength":4},{"buffer":0,"byteOffset":16164,"byteLength":16},{"buffer":0,"byteOffset":16180,"byteLength":4},{"buffer":0,"byteOffset":16184,"byteLength":16},{"buffer":0,"byteOffset":16200,"byteLength":4},{"buffer":0,"byteOffset":16204,"byteLength":16},{"buffer":0,"byteOffset":16220,"byteLength":4},{"buffer":0,"byteOffset":16224,"byteLength":16},{"buffer":0,"byteOffset":16240,"byteLength":4},{"buffer":0,"byteOffset":16244,"byteLength":16},{"buffer":0,"byteOffset":16260,"byteLength":4},{"buffer":0,"byteOffset":16264,"byteLength":16},{"buffer":0,"byteOffset":16280,"byteLength":4},{"buffer":0,"byteOffset":16284,"byteLength":16},{"buffer":0,"byteOffset":16300,"byteLength":4},{"buffer":0,"byteOffset":16304,"byteLength":16},{"buffer":0,"byteOffset":16320,"byteLength":4},{"buffer":0,"byteOffset":16324,"byteLength":16},{"buffer":0,"byteOffset":16340,"byteLength":4},{"buffer":0,"byteOffset":16344,"byteLength":16},{"buffer":0,"byteOffset":16360,"byteLength":4},{"buffer":0,"byteOffset":16364,"byteLength":16}],"buffers":[{"byteLength":16380,"uri":"data:application/octet-stream;base64,"}],"accessors":[{"bufferView":0,"componentType":5126,"count":256,"max":[0.25,1.6875,0.7642205953598022],"min":[-0.25,0.1179962158203125,-1.0120668411254883],"type":"VEC3"},{"bufferView":1,"componentType":5126,"count":256,"max":[1,0.9899494647979736,0.9999989867210388],"min":[-0.8986387252807617,-0.9923530220985413,-0.9316575527191162],"type":"VEC3"},{"bufferView":2,"componentType":5126,"count":256,"max":[0.890625,0.7421875],"min":[0,0],"type":"VEC2"},{"bufferView":3,"componentType":5123,"count":256,"max":[14,7,0,0],"min":[0,0,0,0],"type":"VEC4"},{"bufferView":4,"componentType":5126,"count":256,"max":[1,0.4958018660545349,0,0],"min":[0,0,0,0],"type":"VEC4"},{"bufferView":5,"componentType":5123,"count":360,"max":[255],"min":[0],"type":"SCALAR"},{"bufferView":6,"componentType":5126,"count":16,"max":[1,0,0,0,0,0.9961947202682495,0.4226182699203491,0,0,1,0.9961947202682495,0,0.125,0.8125,0.875,1],"min":[1,0,0,0,0,-1,-1,0,0,-0.4226182699203491,-1,0,-0.125,-1.4095631837844849,-0.4114724397659302,1],"type":"MAT4"},{"bufferView":7,"componentType":5126,"count":1,"max":[0],"min":[0],"type":"SCALAR"},{"bufferView":8,"componentType":5126,"count":1,"max":[0.6888816356658936,-0.06295816600322723,0.06026933342218399,0.7196151614189148],"min":[0.6888816356658936,-0.06295816600322723,0.06026933342218399,0.7196151614189148],"type":"VEC4"},{"bufferView":9,"componentType":5126,"count":1,"max":[0],"min":[0],"type":"SCALAR"},{"bufferView":10,"componentType":5126,"count":1,"max":[-0.19509032368659973,0,0,0.9807852506637573],"min":[-0.19509032368659973,0,0,0.9807852506637573],"type":"VEC4"},{"bufferView":11,"componentType":5126,"count":1,"max":[0],"min":[0],"type":"SCALAR"},{"bufferView":12,"componentType":5126,"count":1,"max":[-0.2798290252685547,0,0,0.9600498676300049],"min":[-0.2798290252685547,0,0,0.9600498676300049],"type":"VEC4"},{"bufferView":13,"componentType":5126,"count":1,"max":[0],"min":[0],"type":"SCALAR"},{"bufferView":14,"componentType":5126,"count":1,"max":[-0.9914448857307434,0,0,-0.13052618503570557],"min":[-0.9914448857307434,0,0,-0.13052618503570557],"type":"VEC4"},{"bufferView":15,"componentType":5126,"count":1,"max":[0],"min":[0],"type":"SCALAR"},{"bufferView":16,"componentType":5126,"count":1,"max":[-0.9961947202682495,0,0,0.08715574443340302],"min":[-0.9961947202682495,0,0,0.08715574443340302],"type":"VEC4"},{"bufferView":17,"componentType":5126,"count":1,"max":[0],"min":[0],"type":"SCALAR"},{"bufferView":18,"componentType":5126,"count":1,"max":[0.3378082811832428,-0.002613173797726631,0.012940187938511372,0.9411223530769348],"min":[0.3378082811832428,-0.002613173797726631,0.012940187938511372,0.9411223530769348],"type":"VEC4"},{"bufferView":19,"componentType":5126,"count":1,"max":[0],"min":[0],"type":"SCALAR"},{"bufferView":20,"componentType":5126,"count":1,"max":[0.3826834261417389,0,0,0.9238795042037964],"min":[0.3826834261417389,0,0,0.9238795042037964],"type":"VEC4"},{"bufferView":21,"componentType":5126,"count":1,"max":[0],"min":[0],"type":"SCALAR"},{"bufferView":22,"componentType":5126,"count":1,"max":[0.237685889005661,0,0,0.9713420867919922],"min":[0.237685889005661,0,0,0.9713420867919922],"type":"VEC4"},{"bufferView":23,"componentType":5126,"count":1,"max":[0],"min":[0],"type":"SCALAR"},{"bufferView":24,"componentType":5126,"count":1,"max":[0.8191520571708679,0,0,0.5735764503479004],"min":[0.8191520571708679,0,0,0.5735764503479004],"type":"VEC4"},{"bufferView":25,"componentType":5126,"count":1,"max":[0],"min":[0],"type":"SCALAR"},{"bufferView":26,"componentType":5126,"count":1,"max":[0.4791584610939026,0.07641176879405975,-0.04192093387246132,0.8733905553817749],"min":[0.4791584610939026,0.07641176879405975,-0.04192093387246132,0.8733905553817749],"type":"VEC4"},{"bufferView":27,"componentType":5126,"count":1,"max":[0],"min":[0],"type":"SCALAR"},{"bufferView":28,"componentType":5126,"count":1,"max":[0.08715574443340302,0,0,0.9961947202682495],"min":[0.08715574443340302,0,0,0.9961947202682495],"type":"VEC4"},{"bufferView":29,"componentType":5126,"count":1,"max":[0],"min":[0],"type":"SCALAR"},{"bufferView":30,"componentType":5126,"count":1,"max":[0,0,0,1],"min":[0,0,0,1],"type":"VEC4"},{"bufferView":31,"componentType":5126,"count":1,"max":[0],"min":[0],"type":"SCALAR"},{"bufferView":32,"componentType":5126,"count":1,"max":[-0.9807852506637573,0,0,-0.19509032368659973],"min":[-0.9807852506637573,0,0,-0.19509032368659973],"type":"VEC4"},{"bufferView":33,"componentType":5126,"count":1,"max":[0],"min":[0],"type":"SCALAR"},{"bufferView":34,"componentType":5126,"count":1,"max":[0.2164396196603775,0,0,0.9762960076332092],"min":[0.2164396196603775,0,0,0.9762960076332092],"type":"VEC4"},{"bufferView":35,"componentType":5126,"count":1,"max":[0],"min":[0],"type":"SCALAR"},{"bufferView":36,"componentType":5126,"count":1,"max":[0.40274667739868164,0,0,0.9153114557266235],"min":[0.40274667739868164,0,0,0.9153114557266235],"type":"VEC4"}],"materials":[{"pbrMetallicRoughness":{"metallicFactor":0,"roughnessFactor":1,"baseColorTexture":{"index":0}},"alphaMode":"MASK","alphaCutoff":0.05,"doubleSided":true}],"textures":[{"sampler":0,"source":0,"name":"maremare.png"}],"samplers":[{"magFilter":9728,"minFilter":9728,"wrapS":33071,"wrapT":33071}],"images":[{"mimeType":"image/png","uri":"data:image/png;base64,"}],"meshes":[{"primitives":[{"mode":4,"attributes":{"POSITION":0,"NORMAL":1,"TEXCOORD_0":2,"JOINTS_0":3,"WEIGHTS_0":4},"indices":5,"material":0}]}],"skins":[{"inverseBindMatrices":6,"joints":[9,8,1,0,4,3,2,7,6,5,12,11,10,15,14,13],"skeleton":9}],"animations":[{"name":"idle","samplers":[{"input":7,"output":8,"interpolation":"LINEAR"},{"input":9,"output":10,"interpolation":"LINEAR"},{"input":11,"output":12,"interpolation":"LINEAR"},{"input":13,"output":14,"interpolation":"LINEAR"},{"input":15,"output":16,"interpolation":"LINEAR"},{"input":17,"output":18,"interpolation":"LINEAR"},{"input":19,"output":20,"interpolation":"LINEAR"},{"input":21,"output":22,"interpolation":"LINEAR"},{"input":23,"output":24,"interpolation":"LINEAR"},{"input":25,"output":26,"interpolation":"LINEAR"},{"input":27,"output":28,"interpolation":"LINEAR"},{"input":29,"output":30,"interpolation":"LINEAR"}],"channels":[{"sampler":0,"target":{"node":9,"path":"rotation"}},{"sampler":1,"target":{"node":8,"path":"rotation"}},{"sampler":2,"target":{"node":1,"path":"rotation"}},{"sampler":3,"target":{"node":12,"path":"rotation"}},{"sampler":4,"target":{"node":15,"path":"rotation"}},{"sampler":5,"target":{"node":11,"path":"rotation"}},{"sampler":6,"target":{"node":14,"path":"rotation"}},{"sampler":7,"target":{"node":4,"path":"rotation"}},{"sampler":8,"target":{"node":7,"path":"rotation"}},{"sampler":9,"target":{"node":3,"path":"rotation"}},{"sampler":10,"target":{"node":6,"path":"rotation"}},{"sampler":11,"target":{"node":0,"path":"rotation"}}]},{"name":"reset","samplers":[{"input":31,"output":32,"interpolation":"LINEAR"},{"input":33,"output":34,"interpolation":"LINEAR"},{"input":35,"output":36,"interpolation":"LINEAR"}],"channels":[{"sampler":0,"target":{"node":15,"path":"rotation"}},{"sampler":1,"target":{"node":14,"path":"rotation"}},{"sampler":2,"target":{"node":7,"path":"rotation"}}]}]}